<?xml version='1.0' encoding='utf-8'?>
<svg xmlns="http://www.w3.org/2000/svg" viewBox="0 0 24 24" fill="none"><path d="M 633 879 L 633 885 L 634 887 L 639 891 L 707 891 L 708 892 L 714 892 L 720 889 L 722 886 L 722 878 L 718 874 L 716 873 L 639 873 L 637 874 Z M 571 769 L 570 770 L 567 770 L 563 772 L 561 774 L 558 780 L 558 786 L 561 792 L 600 831 L 600 832 L 598 834 L 597 834 L 564 867 L 564 868 L 560 872 L 558 876 L 558 883 L 560 887 L 565 892 L 567 892 L 568 893 L 576 893 L 581 889 L 582 889 L 591 880 L 591 879 L 593 878 L 594 876 L 597 873 L 598 873 L 598 872 L 601 869 L 602 869 L 609 862 L 609 861 L 611 859 L 612 859 L 614 857 L 614 856 L 617 853 L 618 853 L 618 852 L 621 849 L 623 848 L 623 847 L 626 844 L 628 843 L 628 842 L 633 836 L 633 826 L 627 819 L 627 818 L 622 813 L 621 813 L 581 773 L 580 773 L 576 770 Z M 464 308 L 461 311 L 460 311 L 451 321 L 451 323 L 450 324 L 450 326 L 448 329 L 448 332 L 447 333 L 447 340 L 446 341 L 446 371 L 445 372 L 445 387 L 444 388 L 444 390 L 441 394 L 441 395 L 435 400 L 423 403 L 421 405 L 421 408 L 420 409 L 420 415 L 421 416 L 421 418 L 420 419 L 420 424 L 421 425 L 421 429 L 424 432 L 426 433 L 430 433 L 431 434 L 433 434 L 438 438 L 439 438 L 444 445 L 444 447 L 445 448 L 445 456 L 446 457 L 446 492 L 447 493 L 447 509 L 448 510 L 448 514 L 450 517 L 451 523 L 453 525 L 457 532 L 459 533 L 471 544 L 474 545 L 477 548 L 478 548 L 480 550 L 487 554 L 490 557 L 493 558 L 497 562 L 500 563 L 506 568 L 509 569 L 512 572 L 513 572 L 515 574 L 522 578 L 525 581 L 531 584 L 534 587 L 535 587 L 537 589 L 538 589 L 540 591 L 547 595 L 550 598 L 553 599 L 556 602 L 559 603 L 562 606 L 563 606 L 565 608 L 569 610 L 572 613 L 575 614 L 580 618 L 583 618 L 584 619 L 590 619 L 591 618 L 593 618 L 597 616 L 602 611 L 603 609 L 603 605 L 604 604 L 604 599 L 603 598 L 603 596 L 601 592 L 594 586 L 593 586 L 588 582 L 585 581 L 582 578 L 578 576 L 568 568 L 567 568 L 559 562 L 556 561 L 552 557 L 549 556 L 543 551 L 540 550 L 536 546 L 535 546 L 533 544 L 526 540 L 523 537 L 520 536 L 517 533 L 511 530 L 508 527 L 507 527 L 505 525 L 504 525 L 502 523 L 495 519 L 492 516 L 488 514 L 482 508 L 482 502 L 481 501 L 481 468 L 480 467 L 480 458 L 479 457 L 479 445 L 478 444 L 477 437 L 472 427 L 468 423 L 468 422 L 464 419 L 464 417 L 472 408 L 478 396 L 478 393 L 479 392 L 479 381 L 480 380 L 480 371 L 481 370 L 481 348 L 482 347 L 482 344 L 487 339 L 793 339 L 796 342 L 797 344 L 797 347 L 798 348 L 798 362 L 799 363 L 799 383 L 800 384 L 800 392 L 801 393 L 801 396 L 807 408 L 810 411 L 810 412 L 814 415 L 814 416 L 816 418 L 808 426 L 808 427 L 806 429 L 803 435 L 802 441 L 801 442 L 801 446 L 800 447 L 800 458 L 799 459 L 798 506 L 795 511 L 794 511 L 790 515 L 787 516 L 784 519 L 783 519 L 781 521 L 780 521 L 778 523 L 771 527 L 768 530 L 765 531 L 761 535 L 758 536 L 756 538 L 752 540 L 749 543 L 742 547 L 739 550 L 736 551 L 733 554 L 727 557 L 723 561 L 722 561 L 720 563 L 713 567 L 710 570 L 706 572 L 703 575 L 700 576 L 697 579 L 696 579 L 694 581 L 693 581 L 691 583 L 684 587 L 680 591 L 677 592 L 674 595 L 671 596 L 667 600 L 661 603 L 658 606 L 657 606 L 651 611 L 644 615 L 641 618 L 635 621 L 631 625 L 628 626 L 624 630 L 621 631 L 611 639 L 605 642 L 602 645 L 601 645 L 595 650 L 594 650 L 592 652 L 585 656 L 582 659 L 581 659 L 579 661 L 578 661 L 576 663 L 569 667 L 559 675 L 556 676 L 553 679 L 549 681 L 539 689 L 536 690 L 530 695 L 527 696 L 523 700 L 520 701 L 518 703 L 514 705 L 511 708 L 505 711 L 501 715 L 498 716 L 494 720 L 491 721 L 489 723 L 482 727 L 479 730 L 476 731 L 473 734 L 469 736 L 464 741 L 463 741 L 456 748 L 456 749 L 454 751 L 450 758 L 450 761 L 448 765 L 448 770 L 447 771 L 447 791 L 446 792 L 446 828 L 445 829 L 445 834 L 443 838 L 436 845 L 432 846 L 431 847 L 427 847 L 423 849 L 421 851 L 421 869 L 420 870 L 421 874 L 423 877 L 425 878 L 433 879 L 435 881 L 438 882 L 443 887 L 445 891 L 445 899 L 446 900 L 446 936 L 447 937 L 447 945 L 448 946 L 449 951 L 453 959 L 455 961 L 455 962 L 461 967 L 469 971 L 471 971 L 474 973 L 805 973 L 818 967 L 825 961 L 832 947 L 832 940 L 833 939 L 833 900 L 834 899 L 834 892 L 836 888 L 840 883 L 843 882 L 847 879 L 849 879 L 850 878 L 854 878 L 856 877 L 859 872 L 859 852 L 858 850 L 853 847 L 850 847 L 840 842 L 836 837 L 835 833 L 834 832 L 834 826 L 833 825 L 833 786 L 832 785 L 832 767 L 831 766 L 831 763 L 829 760 L 828 755 L 824 750 L 823 747 L 821 746 L 816 741 L 815 741 L 810 736 L 806 734 L 803 731 L 800 730 L 794 725 L 791 724 L 788 721 L 787 721 L 784 718 L 777 714 L 774 711 L 771 710 L 768 707 L 765 706 L 762 703 L 756 700 L 752 696 L 746 693 L 736 685 L 735 685 L 730 681 L 727 680 L 723 676 L 720 675 L 700 661 L 697 661 L 696 660 L 688 660 L 687 661 L 683 662 L 678 667 L 677 671 L 676 672 L 676 675 L 675 676 L 676 677 L 676 681 L 677 682 L 677 684 L 680 687 L 680 688 L 682 689 L 686 693 L 692 696 L 699 702 L 702 703 L 705 706 L 712 710 L 715 713 L 720 715 L 723 718 L 727 720 L 731 724 L 733 724 L 737 728 L 740 729 L 750 737 L 753 738 L 757 742 L 762 744 L 766 748 L 769 749 L 773 753 L 776 754 L 782 759 L 783 759 L 788 763 L 791 764 L 797 770 L 797 773 L 798 774 L 798 786 L 799 787 L 799 822 L 800 823 L 800 832 L 801 833 L 801 837 L 802 838 L 802 841 L 805 847 L 805 849 L 808 853 L 808 854 L 814 860 L 815 863 L 808 870 L 801 884 L 801 888 L 800 889 L 800 898 L 799 899 L 799 916 L 798 917 L 799 926 L 798 927 L 798 931 L 797 932 L 797 934 L 794 938 L 792 938 L 791 939 L 488 939 L 486 938 L 482 934 L 482 930 L 481 929 L 481 906 L 480 905 L 480 897 L 479 896 L 479 888 L 478 887 L 478 883 L 477 882 L 477 880 L 474 874 L 469 868 L 469 867 L 467 865 L 466 865 L 464 863 L 464 862 L 472 853 L 478 840 L 478 835 L 479 834 L 479 822 L 480 821 L 480 808 L 481 807 L 481 775 L 482 774 L 482 771 L 485 767 L 486 767 L 490 763 L 493 762 L 496 759 L 499 758 L 503 754 L 507 752 L 511 748 L 512 748 L 517 744 L 520 743 L 522 741 L 529 737 L 532 734 L 535 733 L 538 730 L 539 730 L 545 725 L 552 721 L 555 718 L 558 717 L 561 714 L 565 712 L 575 704 L 581 701 L 584 698 L 588 696 L 598 688 L 599 688 L 604 684 L 607 683 L 611 679 L 615 677 L 618 674 L 621 673 L 623 671 L 627 669 L 630 666 L 631 666 L 634 663 L 637 662 L 640 659 L 643 658 L 646 655 L 650 653 L 660 645 L 663 644 L 669 639 L 672 638 L 676 634 L 679 633 L 682 630 L 689 626 L 692 623 L 693 623 L 696 620 L 703 616 L 706 613 L 709 612 L 719 604 L 722 603 L 728 598 L 729 598 L 731 596 L 738 592 L 741 589 L 742 589 L 750 583 L 753 582 L 756 579 L 760 577 L 770 569 L 773 568 L 777 564 L 782 562 L 785 559 L 788 558 L 791 555 L 792 555 L 794 553 L 795 553 L 797 551 L 804 547 L 807 544 L 810 543 L 823 531 L 823 530 L 825 528 L 829 521 L 829 519 L 831 515 L 831 512 L 832 511 L 832 506 L 833 505 L 833 459 L 834 458 L 834 449 L 835 448 L 835 446 L 838 442 L 838 441 L 844 435 L 848 434 L 849 433 L 853 433 L 857 431 L 859 427 L 859 407 L 858 405 L 854 402 L 848 401 L 847 400 L 844 400 L 837 393 L 835 389 L 835 386 L 834 385 L 834 378 L 833 377 L 833 340 L 832 339 L 832 332 L 831 331 L 831 328 L 830 327 L 830 325 L 828 321 L 821 312 L 817 310 L 814 307 L 810 306 L 809 305 L 806 305 L 805 304 L 475 304 L 474 305 L 471 305 L 470 306 L 468 306 Z" fill="currentColor" fill-rule="evenodd" clip-rule="evenodd" transform="translate(5.109865 1.500000) scale(0.03139013) translate(-420.0 -304.0)" /></svg>